<svg xmlns="http://www.w3.org/2000/svg" width="383.181" height="123.709" viewBox="0 0 383.181 123.709"><path d="M222.988 36.252l-.056-.307 52.706-9.642.056.308-52.706 9.641z" fill="#f2f2f5"/><path d="M222.988 36.252l-.056-.307 52.706-9.642.056.308-52.706 9.641zM.78 122.763l.31.024 6.407-87.63-.312-.022L.78 122.763z" fill="#f2f2f5"/><path d="M275.822 26.466l-.312-.02 1.379-21.84.31.02-1.377 21.84z" fill="#f2f2f5"/><path d="M223.038 36.233l-.158-.27 54.085-31.481.158.269-54.085 31.482z" fill="#f2f2f5"/><path d="M223.038 36.233l-.158-.27 54.085-31.481.158.269-54.085 31.482zm-119.709 40.92l-43.457-58.36.25-.186 43.457 58.36-.25.186z" fill="#f2f2f5"/><path d="M7.387 35.295l-.092-.297L59.95 18.55l.092.299L7.387 35.295z" fill="#f2f2f5"/><path d="M58.16 19.077l.087.3 1.795-.528-.088-.3-1.795.528z" fill="#f2f2f5"/><path d="M103.33 77.157L58.08 19.323l.247-.193 45.249 57.833-.246.194z" fill="#f2f2f5"/><path d="M7.387 35.295l-.092-.297 50.861-15.92.092.297-50.86 15.92z" fill="#f2f2f5"/><path d="M103.1 99.611L58.068 19.303l.27-.153 45.036 80.309-.274.152z" fill="#f2f2f5"/><path d="M103.099 99.608l-43.24-80.834.276-.149 43.24 80.837-.276.146z" fill="#f2f2f5"/><path d="M103.08 99.533l.313.003.217-22.475-.312-.002-.218 22.474zm157.061-82.976l-.179-.256 16.993-11.812.179.256-16.993 11.812z" fill="#f2f2f5"/><path d="M275.582 26.588L259.968 16.56l.169-.262 15.614 10.027-.17.263z" fill="#f2f2f5"/><path d="M223.032 36.236l-.147-.276 37.095-19.67.146.276-37.093 19.67z" fill="#f2f2f5"/><path d="M223.032 36.236l-.147-.276 37.095-19.67.146.276-37.093 19.67zM103.393 99.544l-.312-.02 4.926-79.397.312.019-4.926 79.398z" fill="#f2f2f5"/><path d="M58.2 19.383l49.96.91.007-.313-49.961-.91-.005.313z" fill="#f2f2f5"/><path d="M108.159 20.293l-48.167-1.437.01-.312 48.167 1.436-.01.313z" fill="#f2f2f5"/><path d="M103.61 77.072l-.312-.026 4.71-56.922.313.025-4.712 56.923z" fill="#f2f2f5"/><path d="M163.416 92.628L108.04 20.232l.249-.19 55.376 72.397-.248.189z" fill="#f2f2f5"/><path d="M103.255 99.69l-.036-.31 60.304-7.003.036.311-60.304 7.002z" fill="#f2f2f5"/><path d="M163.5 92.685L103.415 77.21l.078-.301 60.085 15.474-.078.302z" fill="#f2f2f5"/><path d="M163.647 92.647l-.215-.228 59.419-56.434.215.227-59.419 56.435z" fill="#f2f2f5"/><path d="M163.647 92.647l-.215-.228 59.419-56.434.215.227-59.419 56.435z" fill="#f2f2f5"/><path d="M163.693 92.56l-.307-.054 11.096-61.723.308.055-11.097 61.723z" fill="#f2f2f5"/><path d="M174.61 30.965L108.14 20.29l.049-.309 66.472 10.675-.05.31z" fill="#f2f2f5"/><path d="M174.661 30.965l-.052-.308 85.417-14.381.052.307-85.416 14.382z" fill="#f2f2f5"/><path d="M103.538 77.19l-.17-.262 71.183-46.248.169.262-71.182 46.249z" fill="#f2f2f5"/><path d="M222.941 36.253l-48.322-5.287.034-.31 48.322 5.287-.034.31z" fill="#f2f2f5"/><path d="M222.941 36.253l-48.322-5.287.034-.31 48.322 5.287-.034.31zm48.439 55.751l-11.484-75.551.312-.048 11.481 75.553-.309.046z" fill="#f2f2f5"/><path d="M271.69 91.99l-.311-.02 5.509-87.363.311.019-5.509 87.365z" fill="#f2f2f5"/><path d="M271.69 91.99l-.311-.02 4.131-65.523.313.02-4.133 65.524z" fill="#f2f2f5"/><path d="M271.417 92.083l-48.575-55.882.235-.205 48.575 55.882-.235.205z" fill="#f2f2f5"/><path d="M271.417 92.083l-48.575-55.882.235-.205 48.575 55.882-.235.205zM83.92 119.987l-.1-.293 79.67-27.308.1.294-79.67 27.307z" fill="#f2f2f5"/><path d="M83.983 119.948l-.227-.216 19.368-20.306.225.217-19.366 20.305z" fill="#f2f2f5"/><path d="M84.012 119.906l-.285-.13 19.584-42.782.285.13-19.584 42.782z" fill="#f2f2f5"/><path d="M.93 122.618l.01.313 82.936-2.934-.012-.313L.93 122.618z" fill="#f2f2f5"/><path d="M83.77 119.96L20.316 66.503l.2-.239 63.453 53.459-.2.239z" fill="#f2f2f5"/><path d="M103.178 99.68l-82.82-33.151.118-.292 82.82 33.153-.118.29z" fill="#f2f2f5"/><path d="M20.54 66.48l-.245-.195L58.08 19.13l.245.195L20.54 66.48z" fill="#f2f2f5"/><path d="M20.537 66.482l-.239-.2L59.878 18.6l.239.2-39.58 47.683z" fill="#f2f2f5"/><path d="M103.433 77.215L20.397 66.538l.04-.31 83.036 10.676-.04.311zm-83.16-10.772L7.197 35.206l.288-.12 13.076 31.235-.288.122z" fill="#f2f2f5"/><path d="M.789 122.724l.295.101 19.48-56.39-.295-.105-19.48 56.394zm226.039-20.367l-.07-.305L271.5 91.828l.07.305-44.742 10.224z" fill="#f2f2f5"/><path d="M226.667 102.296l-52.159-71.393.254-.185 52.157 71.394-.252.184z" fill="#f2f2f5"/><path d="M226.77 102.358l-63.254-9.67.049-.309 63.252 9.67-.047.309z" fill="#f2f2f5"/><path d="M226.94 102.262l-.292-.114 33.259-85.775.29.112-33.258 85.777z" fill="#f2f2f5"/><path d="M226.925 102.288l-.263-.17 48.873-75.746.263.169-48.873 75.747z" fill="#f2f2f5"/><path d="M226.638 102.214l-3.835-66.106.312-.019 3.835 66.106-.312.019z" fill="#f2f2f5"/><path d="M226.638 102.214l-3.835-66.106.312-.019 3.835 66.106-.312.019zm96.02-101.141l59.96 32.143v-.355L322.805.798l-.147.275z" fill="#f2f2f5"/><path d="M260.014 16.278l.075.303 62.68-15.493-.075-.305-62.68 15.495z" fill="#f2f2f5"/><path d="M277.031 4.46l.025.312 45.688-3.68-.024-.313-45.689 3.682z" fill="#f2f2f5"/><path d="M275.591 26.32l.15.274 47.065-25.521-.15-.275-47.065 25.521zm46.077 77.38l-50.17-11.568.072-.302 50.17 11.565-.072.305z" fill="#f2f2f5"/><path d="M321.57 103.628l-46.038-77.092.269-.16 46.037 77.09-.269.162z" fill="#f2f2f5"/><path d="M321.848 103.606l-.288-.118 16.891-41.99.29.116-16.893 41.992z" fill="#f2f2f5"/><path d="M322.58.975l15.864 60.622.304-.08L322.883.896l-.303.08z" fill="#f2f2f5"/><path d="M382.31 32.762l-43.76 28.646.092.299 43.668-28.618v-.327z" fill="#f2f2f5"/><path d="M271.599 92.122l-.13-.283 67.062-30.424.129.284-67.061 30.423z" fill="#f2f2f5"/><path d="M338.518 61.693l-78.544-45.129.156-.27 78.544 45.128-.156.27z" fill="#f2f2f5"/><path d="M338.49 61.672L276.938 4.731l.213-.229 61.551 56.94-.212.23z" fill="#f2f2f5"/><path d="M338.52 61.693l-62.93-35.1.151-.273 62.93 35.1-.15.273z" fill="#f2f2f5"/><path d="M379.602 72.245l-40.967-10.84-.078.303 41.045 10.86v-.323z" fill="#f2f2f5"/><path d="M355.743 107.2l-17.294-45.588.293-.111 17.292 45.586-.291.112z" fill="#f2f2f5"/><path d="M355.872 107.3l-34.186-3.598.035-.31 34.184 3.595-.033.312z" fill="#f2f2f5"/><path d="M379.602 72.015l-23.842 35.039.258.177 23.584-34.663v-.553z" fill="#f2f2f5"/><path d="M355.861 107.297l-84.353-15.162.055-.308 84.353 15.163-.055.307z" fill="#f2f2f5"/><g fill="#f2f2f5"><path d="M1.199 123.671a.936.936 0 1 1-.525-1.792.936.936 0 0 1 .526 1.792m222.022-86.676a.935.935 0 1 1 .635-1.16.938.938 0 0 1-.635 1.16m52.708-9.64a.936.936 0 1 1-.528-1.796.936.936 0 0 1 .528 1.796"/><path d="M223.222 36.995a.935.935 0 1 1 .635-1.16.938.938 0 0 1-.635 1.16m52.708-9.64a.936.936 0 1 1-.527-1.796.936.936 0 0 1 .527 1.796M1.199 123.671a.936.936 0 1 1-.525-1.792.936.936 0 0 1 .526 1.792m6.405-87.627a.934.934 0 1 1 .634-1.16.935.935 0 0 1-.634 1.16"/><path d="M7.605 36.044a.934.934 0 1 1 .634-1.16.935.935 0 0 1-.634 1.16m268.325-8.689a.936.936 0 1 1-.527-1.796.936.936 0 0 1 .527 1.796m1.376-21.841a.935.935 0 1 1-.525-1.795.935.935 0 0 1 .525 1.795m-54.084 31.481a.935.935 0 1 1 .635-1.16.938.938 0 0 1-.635 1.16"/><path d="M277.306 5.514a.935.935 0 1 1-.525-1.795.935.935 0 0 1 .525 1.795m-54.084 31.481a.935.935 0 1 1 .635-1.16.938.938 0 0 1-.635 1.16"/><path d="M277.306 5.514a.935.935 0 1 1-.525-1.795.935.935 0 0 1 .525 1.795M103.718 77.956a.935.935 0 1 1-.528-1.794.935.935 0 0 1 .527 1.794M60.261 19.597a.938.938 0 0 1-1.162-.633.934.934 0 1 1 1.161.633M7.605 36.044a.934.934 0 1 1 .634-1.16.935.935 0 0 1-.634 1.16"/><path d="M60.261 19.597a.938.938 0 0 1-1.162-.633.934.934 0 1 1 1.161.633"/><path d="M60.261 19.597a.938.938 0 0 1-1.162-.633.934.934 0 1 1 1.161.633"/><path d="M60.261 19.597a.938.938 0 0 1-1.162-.633.934.934 0 1 1 1.161.633"/><path d="M58.466 20.124a.934.934 0 1 1-.526-1.793.934.934 0 0 1 .526 1.793m45.252 57.832a.935.935 0 1 1-.528-1.794.935.935 0 0 1 .527 1.794"/><path d="M58.466 20.124a.934.934 0 1 1-.526-1.793.934.934 0 0 1 .526 1.793M7.605 36.044a.934.934 0 1 1 .634-1.16.935.935 0 0 1-.634 1.16"/><path d="M58.466 20.124a.934.934 0 1 1-.526-1.793.934.934 0 0 1 .526 1.793"/><path d="M58.466 20.124a.934.934 0 1 1-.526-1.793.934.934 0 0 1 .526 1.793"/><path d="M58.466 20.124a.934.934 0 1 1-.526-1.793.934.934 0 0 1 .526 1.793M103.5 100.43a.935.935 0 1 1-.525-1.794.935.935 0 0 1 .525 1.794"/><path d="M60.261 19.597a.938.938 0 0 1-1.162-.633.934.934 0 1 1 1.161.633m43.24 80.834a.935.935 0 1 1-.525-1.794.935.935 0 0 1 .525 1.794m.218-22.475a.935.935 0 1 1-.528-1.794.935.935 0 0 1 .527 1.794"/><path d="M103.5 100.431a.935.935 0 1 1-.525-1.794.935.935 0 0 1 .525 1.794M277.306 5.514a.935.935 0 1 1-.525-1.795.935.935 0 0 1 .525 1.795m-16.99 11.813a.937.937 0 1 1-.527-1.797.937.937 0 0 1 .527 1.797m15.614 10.028a.936.936 0 1 1-.527-1.796.936.936 0 0 1 .527 1.796"/><path d="M260.316 17.328a.937.937 0 1 1-.527-1.798.937.937 0 0 1 .527 1.798m-37.093 19.667a.935.935 0 1 1 .634-1.16.938.938 0 0 1-.635 1.16"/><path d="M260.316 17.328a.937.937 0 1 1-.527-1.798.937.937 0 0 1 .527 1.798m-37.093 19.667a.935.935 0 1 1 .634-1.16.938.938 0 0 1-.635 1.16"/><path d="M260.316 17.328a.937.937 0 1 1-.527-1.798.937.937 0 0 1 .527 1.798M103.5 100.43a.935.935 0 1 1-.525-1.794.935.935 0 0 1 .525 1.794m4.927-79.397a.935.935 0 1 1-.527-1.794.936.936 0 0 1 .527 1.794m-49.96-.91a.934.934 0 1 1-.527-1.793.934.934 0 0 1 .526 1.793"/><path d="M108.428 21.034a.935.935 0 1 1-.528-1.794.936.936 0 0 1 .527 1.794m-48.166-1.437a.938.938 0 0 1-1.162-.633.934.934 0 1 1 1.161.633"/><path d="M108.428 21.034a.935.935 0 1 1-.528-1.794.936.936 0 0 1 .527 1.794m-4.71 56.922a.935.935 0 1 1-.527-1.794.935.935 0 0 1 .527 1.794"/><path d="M108.428 21.034a.935.935 0 1 1-.528-1.794.936.936 0 0 1 .527 1.794"/><path d="M108.428 21.034a.935.935 0 1 1-.528-1.794.936.936 0 0 1 .527 1.794m55.377 72.396a.935.935 0 1 1-.528-1.793.935.935 0 0 1 .528 1.793m-60.304 7.001a.935.935 0 1 1-.525-1.794.935.935 0 0 1 .525 1.794"/><path d="M163.804 93.43a.935.935 0 1 1-.528-1.793.935.935 0 0 1 .528 1.793m-60.087-15.474a.935.935 0 1 1-.527-1.794.935.935 0 0 1 .527 1.794"/><path d="M163.804 93.43a.935.935 0 1 1-.528-1.793.935.935 0 0 1 .528 1.793m59.419-56.435a.935.935 0 1 1 .634-1.16.938.938 0 0 1-.635 1.16"/><path d="M163.804 93.43a.935.935 0 1 1-.528-1.793.935.935 0 0 1 .528 1.793m59.419-56.435a.935.935 0 1 1 .634-1.16.938.938 0 0 1-.635 1.16"/><path d="M163.804 93.43a.935.935 0 1 1-.528-1.793.935.935 0 0 1 .528 1.793"/><path d="M163.804 93.43a.935.935 0 1 1-.528-1.793.935.935 0 0 1 .528 1.793M174.9 31.707a.938.938 0 0 1-1.163-.633.938.938 0 1 1 1.163.633m-66.473-10.673a.935.935 0 1 1-.527-1.794.936.936 0 0 1 .527 1.794"/><path d="M174.9 31.707a.938.938 0 0 1-1.163-.633.938.938 0 1 1 1.163.633m85.416-14.38a.937.937 0 1 1-.527-1.797.937.937 0 0 1 .527 1.798"/><path d="M174.9 31.707a.938.938 0 0 1-1.163-.633.938.938 0 1 1 1.163.633m-71.183 46.25a.935.935 0 1 1-.527-1.794.935.935 0 0 1 .527 1.793"/><path d="M174.9 31.707a.938.938 0 0 1-1.163-.633.938.938 0 1 1 1.163.633m48.322 5.288a.935.935 0 1 1 .635-1.16.938.938 0 0 1-.635 1.16"/><path d="M174.9 31.707a.938.938 0 0 1-1.163-.633.938.938 0 1 1 1.163.633m48.322 5.288a.935.935 0 1 1 .635-1.16.938.938 0 0 1-.635 1.16"/><path d="M174.9 31.707a.938.938 0 0 1-1.163-.633.938.938 0 1 1 1.163.633m85.416-14.38a.937.937 0 1 1-.527-1.797.937.937 0 0 1 .527 1.798m11.481 75.55a.934.934 0 1 1-.528-1.792.934.934 0 0 1 .528 1.791m5.51-87.363a.935.935 0 1 1-.526-1.795.935.935 0 0 1 .525 1.795"/><path d="M271.798 92.877a.934.934 0 1 1-.53-1.79.934.934 0 0 1 .53 1.79m4.132-65.522a.936.936 0 1 1-.527-1.796.936.936 0 0 1 .527 1.796"/><path d="M271.798 92.877a.934.934 0 1 1-.53-1.79.934.934 0 0 1 .53 1.79m-48.575-55.882a.935.935 0 1 1 .635-1.16.938.938 0 0 1-.635 1.16"/><path d="M271.798 92.877a.934.934 0 1 1-.53-1.79.934.934 0 0 1 .53 1.79m-48.575-55.882a.935.935 0 1 1 .635-1.16.938.938 0 0 1-.635 1.16"/><path d="M271.798 92.877a.934.934 0 1 1-.53-1.79.934.934 0 0 1 .53 1.79m-107.994.553a.935.935 0 1 1-.528-1.793.935.935 0 0 1 .528 1.793m-79.671 27.307a.935.935 0 1 1-.528-1.793.938.938 0 0 1 .528 1.793m19.367-20.306a.935.935 0 1 1-.525-1.794.935.935 0 0 1 .525 1.794"/><path d="M84.132 120.737a.935.935 0 1 1-.527-1.793.938.938 0 0 1 .527 1.793m19.585-42.78a.935.935 0 1 1-.527-1.794.935.935 0 0 1 .527 1.793"/><path d="M84.132 120.737a.935.935 0 1 1-.527-1.793.938.938 0 0 1 .527 1.793M1.2 123.671a.936.936 0 1 1-.525-1.792.936.936 0 0 1 .526 1.792"/><path d="M84.132 120.737a.935.935 0 1 1-.527-1.793.938.938 0 0 1 .527 1.793"/><path d="M84.132 120.737a.935.935 0 1 1-.527-1.793.938.938 0 0 1 .527 1.793M20.682 67.28a.938.938 0 1 1-.528-1.796.938.938 0 0 1 .527 1.796M103.5 100.43a.935.935 0 1 1-.525-1.793.935.935 0 0 1 .525 1.793"/><path d="M20.681 67.279a.938.938 0 1 1-.527-1.797.938.938 0 0 1 .527 1.797m37.785-47.155a.934.934 0 1 1-.526-1.793.934.934 0 0 1 .526 1.793"/><path d="M20.681 67.279a.938.938 0 1 1-.527-1.797.938.938 0 0 1 .527 1.797m39.58-47.682a.938.938 0 0 1-1.162-.633.934.934 0 1 1 1.161.633"/><path d="M20.681 67.279a.938.938 0 1 1-.527-1.797.938.938 0 0 1 .527 1.797m83.036 10.677a.935.935 0 1 1-.527-1.794.935.935 0 0 1 .527 1.794"/><path d="M20.681 67.279a.938.938 0 1 1-.527-1.797.938.938 0 0 1 .527 1.797M7.605 36.044a.934.934 0 1 1 .634-1.16.935.935 0 0 1-.634 1.16"/><path d="M20.681 67.279a.938.938 0 1 1-.527-1.797.938.938 0 0 1 .527 1.797M1.2 123.67a.936.936 0 1 1-.525-1.792.936.936 0 0 1 .526 1.792"/><path d="M20.681 67.279a.938.938 0 1 1-.527-1.797.938.938 0 0 1 .527 1.797"/><path d="M20.681 67.279a.938.938 0 1 1-.527-1.797.938.938 0 0 1 .527 1.797m251.116 25.598a.934.934 0 1 1-.528-1.79.934.934 0 0 1 .528 1.79m-44.74 10.226a.936.936 0 1 1-.525-1.793.936.936 0 0 1 .525 1.792M174.9 31.707a.938.938 0 0 1-1.163-.633.938.938 0 1 1 1.163.633"/><path d="M227.057 103.102a.936.936 0 1 1-.525-1.792.936.936 0 0 1 .525 1.792m-63.253-9.672a.935.935 0 1 1-.528-1.793.935.935 0 0 1 .528 1.793"/><path d="M227.057 103.102a.936.936 0 1 1-.525-1.792.936.936 0 0 1 .525 1.792m33.26-85.775a.937.937 0 1 1-.528-1.797.937.937 0 0 1 .527 1.798"/><path d="M227.057 103.102a.936.936 0 1 1-.525-1.792.936.936 0 0 1 .525 1.792m48.873-75.747a.936.936 0 1 1-.527-1.796.936.936 0 0 1 .527 1.796"/><path d="M227.057 103.102a.936.936 0 1 1-.525-1.792.936.936 0 0 1 .525 1.792m-3.834-66.107a.935.935 0 1 1 .634-1.16.938.938 0 0 1-.635 1.16"/><path d="M227.057 103.102a.936.936 0 1 1-.525-1.792.936.936 0 0 1 .525 1.792m-3.834-66.107a.935.935 0 1 1 .634-1.16.938.938 0 0 1-.635 1.16"/><path d="M227.057 103.102a.936.936 0 1 1-.525-1.792.936.936 0 0 1 .525 1.792m95.938-101.27a.934.934 0 1 1-.526-1.792.934.934 0 0 1 .526 1.793m-62.679 15.495a.937.937 0 1 1-.527-1.798.937.937 0 0 1 .527 1.798"/><path d="M322.995 1.832a.934.934 0 1 1-.526-1.792.934.934 0 0 1 .526 1.792m-45.689 3.682a.935.935 0 1 1-.525-1.795.935.935 0 0 1 .525 1.795"/><path d="M322.995 1.832a.934.934 0 1 1-.526-1.792.934.934 0 0 1 .526 1.792M275.93 27.355a.936.936 0 1 1-.527-1.796.936.936 0 0 1 .527 1.796"/><path d="M322.995 1.832a.934.934 0 1 1-.526-1.792.934.934 0 0 1 .526 1.792m-51.198 91.046a.934.934 0 1 1-.528-1.792.934.934 0 0 1 .528 1.791m50.17 11.568a.936.936 0 1 1-.526-1.796.936.936 0 0 1 .525 1.796m-46.036-77.09a.936.936 0 1 1-.528-1.796.936.936 0 0 1 .528 1.796"/><path d="M321.968 104.445a.936.936 0 1 1-.527-1.796.936.936 0 0 1 .525 1.796"/><path d="M321.968 104.445a.936.936 0 1 1-.527-1.796.936.936 0 0 1 .525 1.796m16.894-41.99a.935.935 0 1 1-.525-1.795.935.935 0 0 1 .525 1.795M322.995 1.833a.934.934 0 1 1-.526-1.793.934.934 0 0 1 .526 1.793"/><path d="M338.86 62.455a.935.935 0 1 1-.525-1.795.935.935 0 0 1 .525 1.795"/><path d="M338.86 62.455a.935.935 0 1 1-.525-1.795.935.935 0 0 1 .525 1.795m-67.063 30.422a.934.934 0 1 1-.528-1.79.934.934 0 0 1 .528 1.79"/><path d="M338.86 62.455a.935.935 0 1 1-.525-1.795.935.935 0 0 1 .525 1.795m-78.544-45.127a.937.937 0 1 1-.527-1.798.937.937 0 0 1 .527 1.798"/><path d="M338.86 62.455a.935.935 0 1 1-.525-1.795.935.935 0 0 1 .525 1.795M277.306 5.514a.935.935 0 1 1-.525-1.795.935.935 0 0 1 .525 1.795"/><path d="M338.86 62.455a.935.935 0 1 1-.525-1.795.935.935 0 0 1 .525 1.795m-62.93-35.1a.936.936 0 1 1-.527-1.796.936.936 0 0 1 .527 1.796"/><path d="M338.86 62.455a.935.935 0 1 1-.525-1.795.935.935 0 0 1 .525 1.795"/><path d="M338.86 62.455a.935.935 0 1 1-.525-1.795.935.935 0 0 1 .525 1.795m17.291 45.586a.934.934 0 1 1-.526-1.792.934.934 0 0 1 .526 1.792"/><path d="M338.86 62.455a.935.935 0 1 1-.525-1.795.935.935 0 0 1 .525 1.795m43.649-28.521a.935.935 0 1 1-.525-1.795.935.935 0 0 1 .525 1.795m-2.813 39.426a.935.935 0 1 1-.525-1.794.935.935 0 0 1 .525 1.795m-23.545 34.68a.934.934 0 1 1-.526-1.792.934.934 0 0 1 .526 1.792m-34.184-3.596a.936.936 0 1 1-.526-1.796.936.936 0 0 1 .525 1.796"/><path d="M356.151 108.041a.934.934 0 1 1-.526-1.792.934.934 0 0 1 .526 1.792"/><path d="M356.151 108.041a.934.934 0 1 1-.526-1.792.934.934 0 0 1 .526 1.792m-84.354-15.164a.934.934 0 1 1-.528-1.79.934.934 0 0 1 .529 1.79"/><path d="M356.151 108.041a.934.934 0 1 1-.526-1.792.934.934 0 0 1 .526 1.792m23.469-35.565l-.374-.026 2.813-39.426.374.025-2.813 39.427z"/></g></svg>
